<mxfile host="app.diagrams.net" agent="Mozilla/5.0 (Windows NT 10.0; Win64; x64) AppleWebKit/537.36 (KHTML, like Gecko) Chrome/133.0.0.0 Safari/537.36" version="24.8.3">
  <diagram id="C5RBs43oDa-KdzZeNtuy" name="Page-1">
    <mxGraphModel dx="1059" dy="656" grid="1" gridSize="10" guides="1" tooltips="1" connect="1" arrows="1" fold="1" page="1" pageScale="1" pageWidth="827" pageHeight="1169" math="0" shadow="0">
      <root>
        <mxCell id="WIyWlLk6GJQsqaUBKTNV-0" />
        <mxCell id="WIyWlLk6GJQsqaUBKTNV-1" parent="WIyWlLk6GJQsqaUBKTNV-0" />
        <mxCell id="oZ6SIZspvuidvV_2NCAD-3" style="edgeStyle=orthogonalEdgeStyle;rounded=0;orthogonalLoop=1;jettySize=auto;html=1;entryX=0.5;entryY=0;entryDx=0;entryDy=0;" edge="1" parent="WIyWlLk6GJQsqaUBKTNV-1" source="WIyWlLk6GJQsqaUBKTNV-3" target="oZ6SIZspvuidvV_2NCAD-5">
          <mxGeometry relative="1" as="geometry">
            <mxPoint x="220" y="160" as="targetPoint" />
          </mxGeometry>
        </mxCell>
        <mxCell id="WIyWlLk6GJQsqaUBKTNV-3" value="Start" style="rounded=1;whiteSpace=wrap;html=1;fontSize=12;glass=0;strokeWidth=1;shadow=0;" parent="WIyWlLk6GJQsqaUBKTNV-1" vertex="1">
          <mxGeometry x="160" y="176" width="120" height="40" as="geometry" />
        </mxCell>
        <mxCell id="oZ6SIZspvuidvV_2NCAD-11" style="edgeStyle=orthogonalEdgeStyle;rounded=0;orthogonalLoop=1;jettySize=auto;html=1;entryX=0.5;entryY=0;entryDx=0;entryDy=0;" edge="1" parent="WIyWlLk6GJQsqaUBKTNV-1" source="oZ6SIZspvuidvV_2NCAD-4" target="oZ6SIZspvuidvV_2NCAD-10">
          <mxGeometry relative="1" as="geometry" />
        </mxCell>
        <mxCell id="oZ6SIZspvuidvV_2NCAD-31" value="No" style="edgeLabel;html=1;align=center;verticalAlign=middle;resizable=0;points=[];" vertex="1" connectable="0" parent="oZ6SIZspvuidvV_2NCAD-11">
          <mxGeometry x="-0.1776" y="-1" relative="1" as="geometry">
            <mxPoint as="offset" />
          </mxGeometry>
        </mxCell>
        <mxCell id="oZ6SIZspvuidvV_2NCAD-15" style="edgeStyle=orthogonalEdgeStyle;rounded=0;orthogonalLoop=1;jettySize=auto;html=1;entryX=0;entryY=0.5;entryDx=0;entryDy=0;" edge="1" parent="WIyWlLk6GJQsqaUBKTNV-1" source="oZ6SIZspvuidvV_2NCAD-4" target="oZ6SIZspvuidvV_2NCAD-14">
          <mxGeometry relative="1" as="geometry" />
        </mxCell>
        <mxCell id="oZ6SIZspvuidvV_2NCAD-29" value="Yes" style="edgeLabel;html=1;align=center;verticalAlign=middle;resizable=0;points=[];" vertex="1" connectable="0" parent="oZ6SIZspvuidvV_2NCAD-15">
          <mxGeometry x="0.1571" y="-1" relative="1" as="geometry">
            <mxPoint x="-6" as="offset" />
          </mxGeometry>
        </mxCell>
        <mxCell id="oZ6SIZspvuidvV_2NCAD-4" value="totalSum &amp;gt; availSpace?" style="rhombus;whiteSpace=wrap;html=1;" vertex="1" parent="WIyWlLk6GJQsqaUBKTNV-1">
          <mxGeometry x="141" y="430" width="160" height="80" as="geometry" />
        </mxCell>
        <mxCell id="oZ6SIZspvuidvV_2NCAD-8" style="edgeStyle=orthogonalEdgeStyle;rounded=0;orthogonalLoop=1;jettySize=auto;html=1;entryX=0.5;entryY=0;entryDx=0;entryDy=0;" edge="1" parent="WIyWlLk6GJQsqaUBKTNV-1" source="oZ6SIZspvuidvV_2NCAD-5" target="oZ6SIZspvuidvV_2NCAD-7">
          <mxGeometry relative="1" as="geometry" />
        </mxCell>
        <mxCell id="oZ6SIZspvuidvV_2NCAD-5" value="&lt;div&gt;Load entry array and calculate totalSum&lt;/div&gt;loopsLeft = F * S" style="rounded=0;whiteSpace=wrap;html=1;" vertex="1" parent="WIyWlLk6GJQsqaUBKTNV-1">
          <mxGeometry x="160" y="250" width="120" height="60" as="geometry" />
        </mxCell>
        <mxCell id="oZ6SIZspvuidvV_2NCAD-9" style="edgeStyle=orthogonalEdgeStyle;rounded=0;orthogonalLoop=1;jettySize=auto;html=1;entryX=0.5;entryY=0;entryDx=0;entryDy=0;" edge="1" parent="WIyWlLk6GJQsqaUBKTNV-1" source="oZ6SIZspvuidvV_2NCAD-7" target="oZ6SIZspvuidvV_2NCAD-4">
          <mxGeometry relative="1" as="geometry" />
        </mxCell>
        <mxCell id="oZ6SIZspvuidvV_2NCAD-7" value="currentSpace = [buildingAddr]&lt;div&gt;buildingAddr += 4&lt;/div&gt;&lt;div&gt;availSpace = 12 - currentSpace&lt;/div&gt;" style="rounded=0;whiteSpace=wrap;html=1;" vertex="1" parent="WIyWlLk6GJQsqaUBKTNV-1">
          <mxGeometry x="128" y="340" width="185" height="60" as="geometry" />
        </mxCell>
        <mxCell id="oZ6SIZspvuidvV_2NCAD-18" style="edgeStyle=orthogonalEdgeStyle;rounded=0;orthogonalLoop=1;jettySize=auto;html=1;entryX=0.5;entryY=0;entryDx=0;entryDy=0;" edge="1" parent="WIyWlLk6GJQsqaUBKTNV-1" source="oZ6SIZspvuidvV_2NCAD-10" target="oZ6SIZspvuidvV_2NCAD-17">
          <mxGeometry relative="1" as="geometry" />
        </mxCell>
        <mxCell id="oZ6SIZspvuidvV_2NCAD-10" value="&lt;div&gt;currentSpace += totalSum&lt;div&gt;totalSum = 0&lt;/div&gt;&lt;/div&gt;" style="rounded=0;whiteSpace=wrap;html=1;" vertex="1" parent="WIyWlLk6GJQsqaUBKTNV-1">
          <mxGeometry x="147" y="540" width="149" height="60" as="geometry" />
        </mxCell>
        <mxCell id="oZ6SIZspvuidvV_2NCAD-19" style="edgeStyle=orthogonalEdgeStyle;rounded=0;orthogonalLoop=1;jettySize=auto;html=1;" edge="1" parent="WIyWlLk6GJQsqaUBKTNV-1" source="oZ6SIZspvuidvV_2NCAD-14">
          <mxGeometry relative="1" as="geometry">
            <mxPoint x="220" y="630" as="targetPoint" />
            <Array as="points">
              <mxPoint x="440" y="630" />
              <mxPoint x="221" y="630" />
            </Array>
          </mxGeometry>
        </mxCell>
        <mxCell id="oZ6SIZspvuidvV_2NCAD-14" value="currentSpace = 12&lt;div&gt;totalSum -= availSpace&lt;/div&gt;" style="rounded=0;whiteSpace=wrap;html=1;" vertex="1" parent="WIyWlLk6GJQsqaUBKTNV-1">
          <mxGeometry x="360" y="440" width="149" height="60" as="geometry" />
        </mxCell>
        <mxCell id="oZ6SIZspvuidvV_2NCAD-22" style="edgeStyle=orthogonalEdgeStyle;rounded=0;orthogonalLoop=1;jettySize=auto;html=1;entryX=0.5;entryY=0;entryDx=0;entryDy=0;" edge="1" parent="WIyWlLk6GJQsqaUBKTNV-1" source="oZ6SIZspvuidvV_2NCAD-17" target="oZ6SIZspvuidvV_2NCAD-21">
          <mxGeometry relative="1" as="geometry" />
        </mxCell>
        <mxCell id="oZ6SIZspvuidvV_2NCAD-17" value="currExit = [exitAddr]&lt;div&gt;exitAddr += 4&lt;/div&gt;&lt;div&gt;currSpace -= currExit&lt;/div&gt;&lt;div&gt;[result] = currentSpace&lt;/div&gt;&lt;div&gt;result += 4&lt;/div&gt;&lt;div&gt;loopsLeft -= 1&lt;/div&gt;" style="rounded=0;whiteSpace=wrap;html=1;" vertex="1" parent="WIyWlLk6GJQsqaUBKTNV-1">
          <mxGeometry x="146.5" y="650" width="149" height="100" as="geometry" />
        </mxCell>
        <mxCell id="oZ6SIZspvuidvV_2NCAD-24" style="edgeStyle=orthogonalEdgeStyle;rounded=0;orthogonalLoop=1;jettySize=auto;html=1;exitX=1;exitY=0.5;exitDx=0;exitDy=0;" edge="1" parent="WIyWlLk6GJQsqaUBKTNV-1" source="oZ6SIZspvuidvV_2NCAD-21">
          <mxGeometry relative="1" as="geometry">
            <mxPoint x="220" y="320" as="targetPoint" />
            <Array as="points">
              <mxPoint x="530" y="808" />
              <mxPoint x="530" y="320" />
            </Array>
          </mxGeometry>
        </mxCell>
        <mxCell id="oZ6SIZspvuidvV_2NCAD-25" value="Yes" style="edgeLabel;html=1;align=center;verticalAlign=middle;resizable=0;points=[];" vertex="1" connectable="0" parent="oZ6SIZspvuidvV_2NCAD-24">
          <mxGeometry x="-0.8604" y="-1" relative="1" as="geometry">
            <mxPoint x="-47" as="offset" />
          </mxGeometry>
        </mxCell>
        <mxCell id="oZ6SIZspvuidvV_2NCAD-27" style="edgeStyle=orthogonalEdgeStyle;rounded=0;orthogonalLoop=1;jettySize=auto;html=1;entryX=0.5;entryY=0;entryDx=0;entryDy=0;" edge="1" parent="WIyWlLk6GJQsqaUBKTNV-1" source="oZ6SIZspvuidvV_2NCAD-21" target="oZ6SIZspvuidvV_2NCAD-26">
          <mxGeometry relative="1" as="geometry" />
        </mxCell>
        <mxCell id="oZ6SIZspvuidvV_2NCAD-28" value="No" style="edgeLabel;html=1;align=center;verticalAlign=middle;resizable=0;points=[];" vertex="1" connectable="0" parent="oZ6SIZspvuidvV_2NCAD-27">
          <mxGeometry x="-0.5142" y="1" relative="1" as="geometry">
            <mxPoint as="offset" />
          </mxGeometry>
        </mxCell>
        <mxCell id="oZ6SIZspvuidvV_2NCAD-21" value="loopsLeft &amp;gt;= 1 ?" style="rhombus;whiteSpace=wrap;html=1;" vertex="1" parent="WIyWlLk6GJQsqaUBKTNV-1">
          <mxGeometry x="126" y="773" width="190" height="70" as="geometry" />
        </mxCell>
        <mxCell id="oZ6SIZspvuidvV_2NCAD-26" value="Exit asm_func&amp;nbsp;&lt;div&gt;(BX LR)&lt;/div&gt;" style="rounded=1;whiteSpace=wrap;html=1;fontSize=12;glass=0;strokeWidth=1;shadow=0;" vertex="1" parent="WIyWlLk6GJQsqaUBKTNV-1">
          <mxGeometry x="161" y="875" width="120" height="40" as="geometry" />
        </mxCell>
      </root>
    </mxGraphModel>
  </diagram>
</mxfile>
